<svg xmlns="http://www.w3.org/2000/svg" viewBox="0 0 900 720">
  <defs>
    <linearGradient id="wall" x1="0" y1="0" x2="1" y2="1">
      <stop offset="0" stop-color="#2E5E4E"/>
      <stop offset="0.48" stop-color="#17120E"/>
      <stop offset="1" stop-color="#111111"/>
    </linearGradient>
    <linearGradient id="beer" x1="0" y1="0" x2="0" y2="1">
      <stop offset="0" stop-color="#F2B84B"/>
      <stop offset="1" stop-color="#9B5E2E"/>
    </linearGradient>
  </defs>
  <rect width="900" height="720" fill="url(#wall)"/>
  <rect x="80" y="70" width="740" height="120" rx="4" fill="#0D0D0D" opacity="0.72"/>
  <text x="450" y="148" text-anchor="middle" font-size="70" font-family="serif" font-weight="700" fill="#C88A2D">樂</text>
  <text x="450" y="176" text-anchor="middle" font-size="18" font-family="Arial, sans-serif" font-weight="700" fill="#F4EFE6" opacity="0.82">LE'S CRAFT BEER · NANCHANG</text>
  <rect x="90" y="470" width="720" height="90" rx="8" fill="#7A4A28"/>
  <rect x="110" y="535" width="680" height="28" rx="4" fill="#55331E"/>
  <g opacity="0.96">
    <rect x="150" y="285" width="62" height="188" rx="22" fill="#F4EFE6" opacity="0.2"/>
    <rect x="158" y="330" width="46" height="135" rx="16" fill="url(#beer)"/>
    <circle cx="170" cy="315" r="14" fill="#F4EFE6"/>
    <circle cx="188" cy="312" r="18" fill="#F4EFE6"/>
    <circle cx="200" cy="326" r="12" fill="#F4EFE6"/>
  </g>
  <g opacity="0.96">
    <rect x="270" y="250" width="82" height="220" rx="28" fill="#F4EFE6" opacity="0.18"/>
    <rect x="282" y="315" width="58" height="145" rx="20" fill="url(#beer)"/>
    <circle cx="292" cy="294" r="18" fill="#F4EFE6"/>
    <circle cx="317" cy="288" r="24" fill="#F4EFE6"/>
    <circle cx="338" cy="308" r="15" fill="#F4EFE6"/>
  </g>
  <g opacity="0.96">
    <rect x="455" y="300" width="70" height="170" rx="24" fill="#F4EFE6" opacity="0.18"/>
    <rect x="466" y="350" width="48" height="112" rx="16" fill="url(#beer)"/>
    <circle cx="476" cy="334" r="15" fill="#F4EFE6"/>
    <circle cx="497" cy="330" r="21" fill="#F4EFE6"/>
    <circle cx="513" cy="346" r="12" fill="#F4EFE6"/>
  </g>
  <g opacity="0.96">
    <rect x="620" y="255" width="92" height="215" rx="30" fill="#F4EFE6" opacity="0.18"/>
    <rect x="633" y="320" width="66" height="140" rx="22" fill="url(#beer)"/>
    <circle cx="646" cy="300" r="18" fill="#F4EFE6"/>
    <circle cx="672" cy="292" r="24" fill="#F4EFE6"/>
    <circle cx="694" cy="312" r="15" fill="#F4EFE6"/>
  </g>
  <path d="M95 610 C220 570, 315 650, 455 605 S685 580, 808 630" fill="none" stroke="#C88A2D" stroke-width="8" opacity="0.42"/>
  <path d="M115 635 C240 595, 335 675, 475 630 S705 605, 828 655" fill="none" stroke="#F4EFE6" stroke-width="2" opacity="0.28"/>
</svg>
